<?xml version="1.0" encoding="utf-8"?>
<!-- Generator: Adobe Illustrator 21.1.0, SVG Export Plug-In . SVG Version: 6.00 Build 0)  -->
<svg version="1.1" id="Layer_1" xmlns="http://www.w3.org/2000/svg" xmlns:xlink="http://www.w3.org/1999/xlink" x="0px" y="0px"
	 viewBox="0 0 23.3 41.9" style="enable-background:new 0 0 23.3 41.9;" xml:space="preserve">
<path d="M12.3,41.6L23,31c0.4-0.4,0.4-1,0-1.4c-0.4-0.4-1-0.4-1.4,0l-8.9,8.9V1c0-0.6-0.4-1-1-1c-0.6,0-1,0.4-1,1v37.5l-8.9-8.9
	c-0.4-0.4-1-0.4-1.4,0C0.1,29.8,0,30,0,30.3c0,0.3,0.1,0.5,0.3,0.7l10.6,10.6c0.2,0.2,0.4,0.3,0.7,0.3
	C11.9,41.9,12.2,41.8,12.3,41.6"/>
</svg>
